<svg xmlns="http://www.w3.org/2000/svg" viewBox="0 0 33 33" width="100%" height="100%" fill="#ffffff" xmlns:xlink="http://www.w3.org/1999/xlink"><rect x="0" y="0" width="33" height="33" fill="#ffffff"></rect><rect fill="#000000" width="1" height="1" id="template"></rect><use x="0" y="0" href="#template"></use><use x="0" y="1" href="#template"></use><use x="0" y="2" href="#template"></use><use x="0" y="3" href="#template"></use><use x="0" y="4" href="#template"></use><use x="0" y="5" href="#template"></use><use x="0" y="6" href="#template"></use><use x="0" y="8" href="#template"></use><use x="0" y="10" href="#template"></use><use x="0" y="12" href="#template"></use><use x="0" y="13" href="#template"></use><use x="0" y="14" href="#template"></use><use x="0" y="15" href="#template"></use><use x="0" y="20" href="#template"></use><use x="0" y="23" href="#template"></use><use x="0" y="24" href="#template"></use><use x="0" y="26" href="#template"></use><use x="0" y="27" href="#template"></use><use x="0" y="28" href="#template"></use><use x="0" y="29" href="#template"></use><use x="0" y="30" href="#template"></use><use x="0" y="31" href="#template"></use><use x="0" y="32" href="#template"></use><use x="1" y="0" href="#template"></use><use x="1" y="6" href="#template"></use><use x="1" y="8" href="#template"></use><use x="1" y="10" href="#template"></use><use x="1" y="11" href="#template"></use><use x="1" y="15" href="#template"></use><use x="1" y="16" href="#template"></use><use x="1" y="17" href="#template"></use><use x="1" y="21" href="#template"></use><use x="1" y="24" href="#template"></use><use x="1" y="26" href="#template"></use><use x="1" y="32" href="#template"></use><use x="2" y="0" href="#template"></use><use x="2" y="2" href="#template"></use><use x="2" y="3" href="#template"></use><use x="2" y="4" href="#template"></use><use x="2" y="6" href="#template"></use><use x="2" y="8" href="#template"></use><use x="2" y="9" href="#template"></use><use x="2" y="12" href="#template"></use><use x="2" y="15" href="#template"></use><use x="2" y="17" href="#template"></use><use x="2" y="18" href="#template"></use><use x="2" y="20" href="#template"></use><use x="2" y="21" href="#template"></use><use x="2" y="23" href="#template"></use><use x="2" y="24" href="#template"></use><use x="2" y="26" href="#template"></use><use x="2" y="28" href="#template"></use><use x="2" y="29" href="#template"></use><use x="2" y="30" href="#template"></use><use x="2" y="32" href="#template"></use><use x="3" y="0" href="#template"></use><use x="3" y="2" href="#template"></use><use x="3" y="3" href="#template"></use><use x="3" y="4" href="#template"></use><use x="3" y="6" href="#template"></use><use x="3" y="14" href="#template"></use><use x="3" y="17" href="#template"></use><use x="3" y="18" href="#template"></use><use x="3" y="19" href="#template"></use><use x="3" y="22" href="#template"></use><use x="3" y="23" href="#template"></use><use x="3" y="26" href="#template"></use><use x="3" y="28" href="#template"></use><use x="3" y="29" href="#template"></use><use x="3" y="30" href="#template"></use><use x="3" y="32" href="#template"></use><use x="4" y="0" href="#template"></use><use x="4" y="2" href="#template"></use><use x="4" y="3" href="#template"></use><use x="4" y="4" href="#template"></use><use x="4" y="6" href="#template"></use><use x="4" y="9" href="#template"></use><use x="4" y="14" href="#template"></use><use x="4" y="18" href="#template"></use><use x="4" y="20" href="#template"></use><use x="4" y="24" href="#template"></use><use x="4" y="26" href="#template"></use><use x="4" y="28" href="#template"></use><use x="4" y="29" href="#template"></use><use x="4" y="30" href="#template"></use><use x="4" y="32" href="#template"></use><use x="5" y="0" href="#template"></use><use x="5" y="6" href="#template"></use><use x="5" y="8" href="#template"></use><use x="5" y="13" href="#template"></use><use x="5" y="14" href="#template"></use><use x="5" y="15" href="#template"></use><use x="5" y="20" href="#template"></use><use x="5" y="22" href="#template"></use><use x="5" y="26" href="#template"></use><use x="5" y="32" href="#template"></use><use x="6" y="0" href="#template"></use><use x="6" y="1" href="#template"></use><use x="6" y="2" href="#template"></use><use x="6" y="3" href="#template"></use><use x="6" y="4" href="#template"></use><use x="6" y="5" href="#template"></use><use x="6" y="6" href="#template"></use><use x="6" y="8" href="#template"></use><use x="6" y="10" href="#template"></use><use x="6" y="12" href="#template"></use><use x="6" y="14" href="#template"></use><use x="6" y="16" href="#template"></use><use x="6" y="18" href="#template"></use><use x="6" y="20" href="#template"></use><use x="6" y="22" href="#template"></use><use x="6" y="24" href="#template"></use><use x="6" y="26" href="#template"></use><use x="6" y="27" href="#template"></use><use x="6" y="28" href="#template"></use><use x="6" y="29" href="#template"></use><use x="6" y="30" href="#template"></use><use x="6" y="31" href="#template"></use><use x="6" y="32" href="#template"></use><use x="7" y="8" href="#template"></use><use x="7" y="9" href="#template"></use><use x="7" y="11" href="#template"></use><use x="7" y="12" href="#template"></use><use x="7" y="14" href="#template"></use><use x="7" y="17" href="#template"></use><use x="7" y="18" href="#template"></use><use x="7" y="21" href="#template"></use><use x="7" y="22" href="#template"></use><use x="7" y="24" href="#template"></use><use x="8" y="2" href="#template"></use><use x="8" y="3" href="#template"></use><use x="8" y="4" href="#template"></use><use x="8" y="6" href="#template"></use><use x="8" y="8" href="#template"></use><use x="8" y="9" href="#template"></use><use x="8" y="10" href="#template"></use><use x="8" y="11" href="#template"></use><use x="8" y="13" href="#template"></use><use x="8" y="14" href="#template"></use><use x="8" y="15" href="#template"></use><use x="8" y="16" href="#template"></use><use x="8" y="17" href="#template"></use><use x="8" y="21" href="#template"></use><use x="8" y="24" href="#template"></use><use x="8" y="25" href="#template"></use><use x="8" y="26" href="#template"></use><use x="8" y="27" href="#template"></use><use x="8" y="30" href="#template"></use><use x="8" y="31" href="#template"></use><use x="8" y="32" href="#template"></use><use x="9" y="1" href="#template"></use><use x="9" y="4" href="#template"></use><use x="9" y="5" href="#template"></use><use x="9" y="13" href="#template"></use><use x="9" y="14" href="#template"></use><use x="9" y="15" href="#template"></use><use x="9" y="17" href="#template"></use><use x="9" y="20" href="#template"></use><use x="9" y="23" href="#template"></use><use x="9" y="24" href="#template"></use><use x="9" y="25" href="#template"></use><use x="9" y="26" href="#template"></use><use x="9" y="29" href="#template"></use><use x="9" y="30" href="#template"></use><use x="9" y="31" href="#template"></use><use x="9" y="32" href="#template"></use><use x="10" y="0" href="#template"></use><use x="10" y="1" href="#template"></use><use x="10" y="3" href="#template"></use><use x="10" y="4" href="#template"></use><use x="10" y="5" href="#template"></use><use x="10" y="6" href="#template"></use><use x="10" y="7" href="#template"></use><use x="10" y="11" href="#template"></use><use x="10" y="16" href="#template"></use><use x="10" y="19" href="#template"></use><use x="10" y="22" href="#template"></use><use x="10" y="24" href="#template"></use><use x="10" y="25" href="#template"></use><use x="10" y="27" href="#template"></use><use x="10" y="30" href="#template"></use><use x="10" y="31" href="#template"></use><use x="11" y="4" href="#template"></use><use x="11" y="5" href="#template"></use><use x="11" y="8" href="#template"></use><use x="11" y="11" href="#template"></use><use x="11" y="12" href="#template"></use><use x="11" y="14" href="#template"></use><use x="11" y="15" href="#template"></use><use x="11" y="16" href="#template"></use><use x="11" y="20" href="#template"></use><use x="11" y="24" href="#template"></use><use x="11" y="26" href="#template"></use><use x="11" y="30" href="#template"></use><use x="11" y="31" href="#template"></use><use x="12" y="0" href="#template"></use><use x="12" y="1" href="#template"></use><use x="12" y="2" href="#template"></use><use x="12" y="5" href="#template"></use><use x="12" y="6" href="#template"></use><use x="12" y="7" href="#template"></use><use x="12" y="14" href="#template"></use><use x="12" y="16" href="#template"></use><use x="12" y="17" href="#template"></use><use x="12" y="18" href="#template"></use><use x="12" y="19" href="#template"></use><use x="12" y="21" href="#template"></use><use x="12" y="22" href="#template"></use><use x="12" y="23" href="#template"></use><use x="12" y="24" href="#template"></use><use x="12" y="25" href="#template"></use><use x="12" y="27" href="#template"></use><use x="13" y="1" href="#template"></use><use x="13" y="3" href="#template"></use><use x="13" y="7" href="#template"></use><use x="13" y="8" href="#template"></use><use x="13" y="9" href="#template"></use><use x="13" y="15" href="#template"></use><use x="13" y="18" href="#template"></use><use x="13" y="20" href="#template"></use><use x="13" y="23" href="#template"></use><use x="13" y="26" href="#template"></use><use x="13" y="28" href="#template"></use><use x="13" y="29" href="#template"></use><use x="13" y="32" href="#template"></use><use x="14" y="0" href="#template"></use><use x="14" y="5" href="#template"></use><use x="14" y="6" href="#template"></use><use x="14" y="7" href="#template"></use><use x="14" y="9" href="#template"></use><use x="14" y="10" href="#template"></use><use x="14" y="13" href="#template"></use><use x="14" y="15" href="#template"></use><use x="14" y="16" href="#template"></use><use x="14" y="22" href="#template"></use><use x="14" y="26" href="#template"></use><use x="14" y="27" href="#template"></use><use x="14" y="28" href="#template"></use><use x="14" y="31" href="#template"></use><use x="15" y="0" href="#template"></use><use x="15" y="1" href="#template"></use><use x="15" y="5" href="#template"></use><use x="15" y="9" href="#template"></use><use x="15" y="10" href="#template"></use><use x="15" y="12" href="#template"></use><use x="15" y="13" href="#template"></use><use x="15" y="15" href="#template"></use><use x="15" y="16" href="#template"></use><use x="15" y="18" href="#template"></use><use x="15" y="20" href="#template"></use><use x="15" y="21" href="#template"></use><use x="15" y="22" href="#template"></use><use x="15" y="23" href="#template"></use><use x="15" y="24" href="#template"></use><use x="15" y="25" href="#template"></use><use x="15" y="28" href="#template"></use><use x="15" y="29" href="#template"></use><use x="16" y="0" href="#template"></use><use x="16" y="2" href="#template"></use><use x="16" y="3" href="#template"></use><use x="16" y="4" href="#template"></use><use x="16" y="5" href="#template"></use><use x="16" y="6" href="#template"></use><use x="16" y="8" href="#template"></use><use x="16" y="10" href="#template"></use><use x="16" y="11" href="#template"></use><use x="16" y="15" href="#template"></use><use x="16" y="20" href="#template"></use><use x="16" y="25" href="#template"></use><use x="16" y="27" href="#template"></use><use x="16" y="28" href="#template"></use><use x="16" y="30" href="#template"></use><use x="16" y="32" href="#template"></use><use x="17" y="1" href="#template"></use><use x="17" y="2" href="#template"></use><use x="17" y="4" href="#template"></use><use x="17" y="5" href="#template"></use><use x="17" y="8" href="#template"></use><use x="17" y="9" href="#template"></use><use x="17" y="12" href="#template"></use><use x="17" y="13" href="#template"></use><use x="17" y="15" href="#template"></use><use x="17" y="16" href="#template"></use><use x="17" y="17" href="#template"></use><use x="17" y="18" href="#template"></use><use x="17" y="20" href="#template"></use><use x="17" y="21" href="#template"></use><use x="17" y="23" href="#template"></use><use x="17" y="24" href="#template"></use><use x="17" y="25" href="#template"></use><use x="17" y="26" href="#template"></use><use x="17" y="31" href="#template"></use><use x="18" y="1" href="#template"></use><use x="18" y="2" href="#template"></use><use x="18" y="3" href="#template"></use><use x="18" y="4" href="#template"></use><use x="18" y="6" href="#template"></use><use x="18" y="7" href="#template"></use><use x="18" y="8" href="#template"></use><use x="18" y="10" href="#template"></use><use x="18" y="12" href="#template"></use><use x="18" y="17" href="#template"></use><use x="18" y="18" href="#template"></use><use x="18" y="20" href="#template"></use><use x="18" y="27" href="#template"></use><use x="18" y="28" href="#template"></use><use x="18" y="30" href="#template"></use><use x="19" y="0" href="#template"></use><use x="19" y="2" href="#template"></use><use x="19" y="4" href="#template"></use><use x="19" y="8" href="#template"></use><use x="19" y="10" href="#template"></use><use x="19" y="12" href="#template"></use><use x="19" y="16" href="#template"></use><use x="19" y="17" href="#template"></use><use x="19" y="18" href="#template"></use><use x="19" y="19" href="#template"></use><use x="19" y="20" href="#template"></use><use x="19" y="21" href="#template"></use><use x="19" y="22" href="#template"></use><use x="19" y="23" href="#template"></use><use x="19" y="24" href="#template"></use><use x="19" y="25" href="#template"></use><use x="19" y="29" href="#template"></use><use x="19" y="30" href="#template"></use><use x="19" y="31" href="#template"></use><use x="20" y="0" href="#template"></use><use x="20" y="1" href="#template"></use><use x="20" y="4" href="#template"></use><use x="20" y="5" href="#template"></use><use x="20" y="6" href="#template"></use><use x="20" y="7" href="#template"></use><use x="20" y="8" href="#template"></use><use x="20" y="9" href="#template"></use><use x="20" y="11" href="#template"></use><use x="20" y="12" href="#template"></use><use x="20" y="14" href="#template"></use><use x="20" y="19" href="#template"></use><use x="20" y="22" href="#template"></use><use x="20" y="24" href="#template"></use><use x="20" y="27" href="#template"></use><use x="20" y="28" href="#template"></use><use x="20" y="29" href="#template"></use><use x="21" y="0" href="#template"></use><use x="21" y="1" href="#template"></use><use x="21" y="3" href="#template"></use><use x="21" y="7" href="#template"></use><use x="21" y="11" href="#template"></use><use x="21" y="12" href="#template"></use><use x="21" y="13" href="#template"></use><use x="21" y="14" href="#template"></use><use x="21" y="17" href="#template"></use><use x="21" y="19" href="#template"></use><use x="21" y="20" href="#template"></use><use x="21" y="25" href="#template"></use><use x="21" y="30" href="#template"></use><use x="21" y="31" href="#template"></use><use x="21" y="32" href="#template"></use><use x="22" y="0" href="#template"></use><use x="22" y="2" href="#template"></use><use x="22" y="5" href="#template"></use><use x="22" y="6" href="#template"></use><use x="22" y="7" href="#template"></use><use x="22" y="8" href="#template"></use><use x="22" y="11" href="#template"></use><use x="22" y="13" href="#template"></use><use x="22" y="16" href="#template"></use><use x="22" y="18" href="#template"></use><use x="22" y="22" href="#template"></use><use x="22" y="23" href="#template"></use><use x="22" y="24" href="#template"></use><use x="22" y="27" href="#template"></use><use x="22" y="28" href="#template"></use><use x="22" y="31" href="#template"></use><use x="23" y="0" href="#template"></use><use x="23" y="2" href="#template"></use><use x="23" y="3" href="#template"></use><use x="23" y="4" href="#template"></use><use x="23" y="8" href="#template"></use><use x="23" y="13" href="#template"></use><use x="23" y="15" href="#template"></use><use x="23" y="18" href="#template"></use><use x="23" y="20" href="#template"></use><use x="23" y="23" href="#template"></use><use x="23" y="28" href="#template"></use><use x="23" y="30" href="#template"></use><use x="23" y="31" href="#template"></use><use x="24" y="0" href="#template"></use><use x="24" y="2" href="#template"></use><use x="24" y="3" href="#template"></use><use x="24" y="4" href="#template"></use><use x="24" y="6" href="#template"></use><use x="24" y="9" href="#template"></use><use x="24" y="10" href="#template"></use><use x="24" y="11" href="#template"></use><use x="24" y="13" href="#template"></use><use x="24" y="14" href="#template"></use><use x="24" y="16" href="#template"></use><use x="24" y="17" href="#template"></use><use x="24" y="19" href="#template"></use><use x="24" y="21" href="#template"></use><use x="24" y="22" href="#template"></use><use x="24" y="23" href="#template"></use><use x="24" y="24" href="#template"></use><use x="24" y="25" href="#template"></use><use x="24" y="26" href="#template"></use><use x="24" y="27" href="#template"></use><use x="24" y="28" href="#template"></use><use x="25" y="8" href="#template"></use><use x="25" y="9" href="#template"></use><use x="25" y="10" href="#template"></use><use x="25" y="11" href="#template"></use><use x="25" y="13" href="#template"></use><use x="25" y="15" href="#template"></use><use x="25" y="17" href="#template"></use><use x="25" y="18" href="#template"></use><use x="25" y="21" href="#template"></use><use x="25" y="24" href="#template"></use><use x="25" y="28" href="#template"></use><use x="25" y="29" href="#template"></use><use x="25" y="31" href="#template"></use><use x="25" y="32" href="#template"></use><use x="26" y="0" href="#template"></use><use x="26" y="1" href="#template"></use><use x="26" y="2" href="#template"></use><use x="26" y="3" href="#template"></use><use x="26" y="4" href="#template"></use><use x="26" y="5" href="#template"></use><use x="26" y="6" href="#template"></use><use x="26" y="9" href="#template"></use><use x="26" y="10" href="#template"></use><use x="26" y="11" href="#template"></use><use x="26" y="17" href="#template"></use><use x="26" y="18" href="#template"></use><use x="26" y="19" href="#template"></use><use x="26" y="20" href="#template"></use><use x="26" y="21" href="#template"></use><use x="26" y="23" href="#template"></use><use x="26" y="24" href="#template"></use><use x="26" y="26" href="#template"></use><use x="26" y="28" href="#template"></use><use x="26" y="31" href="#template"></use><use x="27" y="0" href="#template"></use><use x="27" y="6" href="#template"></use><use x="27" y="9" href="#template"></use><use x="27" y="10" href="#template"></use><use x="27" y="12" href="#template"></use><use x="27" y="15" href="#template"></use><use x="27" y="16" href="#template"></use><use x="27" y="17" href="#template"></use><use x="27" y="19" href="#template"></use><use x="27" y="20" href="#template"></use><use x="27" y="21" href="#template"></use><use x="27" y="22" href="#template"></use><use x="27" y="23" href="#template"></use><use x="27" y="24" href="#template"></use><use x="27" y="28" href="#template"></use><use x="27" y="29" href="#template"></use><use x="27" y="30" href="#template"></use><use x="27" y="31" href="#template"></use><use x="27" y="32" href="#template"></use><use x="28" y="0" href="#template"></use><use x="28" y="2" href="#template"></use><use x="28" y="3" href="#template"></use><use x="28" y="4" href="#template"></use><use x="28" y="6" href="#template"></use><use x="28" y="8" href="#template"></use><use x="28" y="11" href="#template"></use><use x="28" y="13" href="#template"></use><use x="28" y="14" href="#template"></use><use x="28" y="15" href="#template"></use><use x="28" y="16" href="#template"></use><use x="28" y="18" href="#template"></use><use x="28" y="19" href="#template"></use><use x="28" y="20" href="#template"></use><use x="28" y="21" href="#template"></use><use x="28" y="24" href="#template"></use><use x="28" y="25" href="#template"></use><use x="28" y="26" href="#template"></use><use x="28" y="27" href="#template"></use><use x="28" y="28" href="#template"></use><use x="28" y="31" href="#template"></use><use x="28" y="32" href="#template"></use><use x="29" y="0" href="#template"></use><use x="29" y="2" href="#template"></use><use x="29" y="3" href="#template"></use><use x="29" y="4" href="#template"></use><use x="29" y="6" href="#template"></use><use x="29" y="8" href="#template"></use><use x="29" y="9" href="#template"></use><use x="29" y="14" href="#template"></use><use x="29" y="15" href="#template"></use><use x="29" y="22" href="#template"></use><use x="29" y="23" href="#template"></use><use x="29" y="25" href="#template"></use><use x="29" y="28" href="#template"></use><use x="29" y="30" href="#template"></use><use x="29" y="31" href="#template"></use><use x="30" y="0" href="#template"></use><use x="30" y="2" href="#template"></use><use x="30" y="3" href="#template"></use><use x="30" y="4" href="#template"></use><use x="30" y="6" href="#template"></use><use x="30" y="8" href="#template"></use><use x="30" y="9" href="#template"></use><use x="30" y="13" href="#template"></use><use x="30" y="14" href="#template"></use><use x="30" y="17" href="#template"></use><use x="30" y="18" href="#template"></use><use x="30" y="21" href="#template"></use><use x="30" y="22" href="#template"></use><use x="30" y="24" href="#template"></use><use x="30" y="25" href="#template"></use><use x="30" y="26" href="#template"></use><use x="30" y="29" href="#template"></use><use x="30" y="30" href="#template"></use><use x="31" y="0" href="#template"></use><use x="31" y="6" href="#template"></use><use x="31" y="9" href="#template"></use><use x="31" y="10" href="#template"></use><use x="31" y="15" href="#template"></use><use x="31" y="16" href="#template"></use><use x="31" y="18" href="#template"></use><use x="31" y="20" href="#template"></use><use x="31" y="22" href="#template"></use><use x="31" y="23" href="#template"></use><use x="31" y="26" href="#template"></use><use x="31" y="27" href="#template"></use><use x="31" y="30" href="#template"></use><use x="32" y="0" href="#template"></use><use x="32" y="1" href="#template"></use><use x="32" y="2" href="#template"></use><use x="32" y="3" href="#template"></use><use x="32" y="4" href="#template"></use><use x="32" y="5" href="#template"></use><use x="32" y="6" href="#template"></use><use x="32" y="11" href="#template"></use><use x="32" y="12" href="#template"></use><use x="32" y="13" href="#template"></use><use x="32" y="14" href="#template"></use><use x="32" y="16" href="#template"></use><use x="32" y="17" href="#template"></use><use x="32" y="18" href="#template"></use><use x="32" y="23" href="#template"></use><use x="32" y="24" href="#template"></use><use x="32" y="25" href="#template"></use><use x="32" y="29" href="#template"></use><use x="32" y="30" href="#template"></use><use x="32" y="31" href="#template"></use></svg>
